<svg id="Layer_1" data-name="Layer 1" xmlns="http://www.w3.org/2000/svg" viewBox="0 0 500 500"><defs><style>.cls-1{fill:#a80000;}</style></defs><path class="cls-1" d="M155.15,275.12a4,4,0,0,1,.4-2.14c2.26-5,4.53-9.91,6.76-14.87q1.51-3.37,2.92-6.81a18.8,18.8,0,0,0-5.34-21.54,17.76,17.76,0,0,0-8.12-3.69,117.45,117.45,0,0,0-20.49-2c-5.21-.06-10.42,0-15.63,0-5.85,0-11.7.1-17.55,0-4.81-.1-9.6-.46-14.4-.71-1.66-.09-3.32-.19-5-.31a27.58,27.58,0,0,1-11-3.26,32.09,32.09,0,0,1-14.51-15,23.27,23.27,0,0,1-1.78-5.58c0-.1,0-.2,0-.43l1,.3c4.71,1.56,9.41,3.15,14.14,4.66,3,.95,6,1.89,9.11,2.63A54.74,54.74,0,0,0,89,207.68c1.59,0,3.17-.08,4.75-.13l.53-.06c-.26-.32-.44-.56-.64-.79a31.65,31.65,0,0,0-9.42-7.19,61.53,61.53,0,0,0-9.8-3.85l-.77-.24A5.12,5.12,0,0,1,76.19,194l11.23-1.61c2.63-.38,5.26-.81,7.89-1.15,3.22-.41,6.44-.79,9.67-1.12a154.73,154.73,0,0,1,16.25-.71c4.65,0,9.29.2,13.92.6a21.56,21.56,0,0,1,7.17,2c2.21,1,4.39,2.13,6.57,3.23a55.36,55.36,0,0,0,14.77,4.88c2.35.44,4.73.73,7,1.3,9.36,2.33,15.58,8.18,18.8,17.21a27.44,27.44,0,0,1,1.34,10.88,48.72,48.72,0,0,1-7.07,21.94,56.69,56.69,0,0,1-18.7,19.63,49.79,49.79,0,0,1-7.28,3.79A3.42,3.42,0,0,1,155.15,275.12Zm-10.28-74.05a13.15,13.15,0,0,0-3.29-2.22,37.45,37.45,0,0,0-10.35-3.36,12.86,12.86,0,0,0-4.79-.19,2.94,2.94,0,0,0-.54.21,8.72,8.72,0,0,0,2.31,2,25.28,25.28,0,0,0,6.22,2.76,25.86,25.86,0,0,0,7.66,1.3A7,7,0,0,0,144.87,201.07Z"/><path class="cls-1" d="M65.64,310.45c.54-1.77,1-3.35,1.52-4.94,6.65-21.52,13.33-43,20.29-64.46.48-1.48,1-3,1.46-4.43.22-.64.47-1.26.75-1.87a6.65,6.65,0,0,1,6.11-4.15c2.7-.14,5.42-.17,8.13-.21q7.29-.07,14.57-.1a6.36,6.36,0,0,1,1.44.16,1.32,1.32,0,0,1,1.11,1.46,4.9,4.9,0,0,1-.22,1.26c-4.92,14.81-9.57,29.72-15.11,44.32-1.91,5-4,10-6.1,14.89a26.94,26.94,0,0,1-15.74,14.9A50,50,0,0,1,73,310c-1.54.22-3.09.43-4.64.55A23.26,23.26,0,0,1,65.64,310.45Z"/><path class="cls-1" d="M357,237.4c.66-.77,1.38-1.49,2-2.31q8.7-12.1,17.37-24.22c.12-.17.24-.35.37-.52a3.6,3.6,0,0,1,2.91-1.47l8.62,0c.78,0,1.56,0,2.34,0,1.36,0,1.88.62,1.58,1.95-.47,2.06-1,4.12-1.53,6.17q-4.3,16.43-8,33c-.83,3.66-1.79,7.29-2.71,10.94a2,2,0,0,1-2.11,1.7q-4.83.09-9.66.07c-1.18,0-1.58-.6-1.27-1.84.43-1.69.89-3.37,1.33-5.06q2.18-8.33,4.33-16.67c.28-1.08.49-2.19.74-3.31l-.54-.3a2.69,2.69,0,0,0-.33.35c-2.28,3.13-4.57,6.24-6.81,9.39-2.56,3.61-5.08,7.26-7.63,10.88a12.39,12.39,0,0,1-1.22,1.49,2.41,2.41,0,0,1-2.51.69,7.36,7.36,0,0,1-5.6-4.92,35.94,35.94,0,0,1-1.12-4.69c-.74-4-1.4-8-2.12-12-.21-1.18-.53-2.34-.84-3.69-.14.33-.23.48-.28.65-2,7.37-4.11,14.73-5.73,22.2-.36,1.71-.69,3.42-1,5.13a1.75,1.75,0,0,1-2,1.69c-3.22,0-6.45,0-9.67,0-1.28,0-1.78-.61-1.49-1.86q1.16-4.94,2.36-9.86,4.32-17.49,8.68-35a15.31,15.31,0,0,1,1-2.88,7,7,0,0,1,4.87-4.11,8.61,8.61,0,0,1,1.83-.19c2,0,4,.05,6,.07h.8a1.57,1.57,0,0,1,1.8,1.46c.39,1.86.74,3.73,1.1,5.6.9,4.58,1.82,9.16,2.69,13.74.45,2.4.82,4.82,1.23,7.22,0,.16.07.31.11.46Z"/><path class="cls-1" d="M290.66,245.62l10.18,17.31a13.1,13.1,0,0,1-1.56.23c-2.26,0-4.51.07-6.76.1-1.07,0-2.15,0-3.22.08a3.82,3.82,0,0,1-3.91-2.12c-2.59-4.42-5.25-8.8-7.82-13.24a4.65,4.65,0,0,0-4.58-2.51c-1.08.06-2.15.06-3.22.1-1.39,0-1.69.25-2,1.59q-1.26,5.37-2.5,10.74c-.21.91-.4,1.83-.63,2.74a6.69,6.69,0,0,1-.35,1.07,2.58,2.58,0,0,1-2.32,1.6c-.35,0-.7,0-1,0l-7.89-.06a7.83,7.83,0,0,1-1.28-.05c-.78-.11-1.06-.47-1-1.27a5.31,5.31,0,0,1,.16-.87q3.69-14.84,7.35-29.67c1-4.12,1.9-8.26,2.83-12.39a12.73,12.73,0,0,1,2.28-5,11.19,11.19,0,0,1,9.13-4.48c3-.05,6.07,0,9.1,0l17.56-.05a11.37,11.37,0,0,1,4.85,1,10.4,10.4,0,0,1,6.06,7.92,13.76,13.76,0,0,1-.4,6.68,71.49,71.49,0,0,0-2.09,8.27c-.2,1.16-.43,2.32-.72,3.46a12.47,12.47,0,0,1-.81,2.1,11.39,11.39,0,0,1-11.91,6.73C293,245.48,291.94,245.6,290.66,245.62ZM272,232.36a1.46,1.46,0,0,0,1.25.56c1.5,0,3,0,4.5.05l15.38,0a2,2,0,0,0,2.07-1.45c.72-2.52,1.41-5.06,2-7.61.3-1.19-.3-1.91-1.53-2-.64-.06-1.29,0-1.93,0l-16.83,0a2.84,2.84,0,0,0-3,2.28q-.68,2.52-1.27,5.07C272.44,230.31,272.22,231.36,272,232.36Z"/><path class="cls-1" d="M387.57,263.19c.34-1.43.68-2.75,1-4.08,1.93-8.05,3.82-16.12,5.79-24.17,1.44-5.86,3-11.69,4.5-17.54a11.13,11.13,0,0,1,1.66-3.64,9.73,9.73,0,0,1,6.77-4.08,16.86,16.86,0,0,1,2.56-.18q18.9,0,37.78,0h1c-.05.33-.07.61-.14.88-1.61,6.79-3.18,13.58-4.85,20.35-2.41,9.82-4.94,19.61-7.1,29.49a8.86,8.86,0,0,1-.56,1.67,2.4,2.4,0,0,1-2.16,1.44c-.46,0-.92,0-1.37,0l-6.52,0a8.63,8.63,0,0,1-1.44,0,1.33,1.33,0,0,1-1.22-1.53,6,6,0,0,1,.21-1.27c.79-3.06,1.6-6.12,2.39-9.18a7.82,7.82,0,0,0,.28-1.58c0-.8-.28-1.19-1.1-1.31a11.8,11.8,0,0,0-1.69-.1h-14c-1.13,0-2.26,0-3.38,0a6.4,6.4,0,0,0-.88.05,1.51,1.51,0,0,0-1.39,1.17c-.17.59-.27,1.2-.42,1.8-.86,3.54-1.71,7.08-2.59,10.62-.24,1-.67,1.27-1.67,1.27l-10.55,0Zm30.83-27.58v.09c3.19,0,6.38,0,9.57,0,1.13,0,1.61-.48,1.92-1.69q1.26-4.91,2.53-9.81a5.23,5.23,0,0,0,.15-1,1.08,1.08,0,0,0-1-1.23,10.46,10.46,0,0,0-1.68-.11c-3.2,0-6.39.05-9.58.05-2.52,0-5,0-7.57-.06-1.8,0-2.36.42-2.83,2.19-.7,2.67-1.41,5.33-2.12,8-.17.65-.35,1.3-.46,2a1.25,1.25,0,0,0,1,1.56,3,3,0,0,0,.79.09h9.26Z"/><path class="cls-1" d="M230.37,209.44c4.7,0,9.39,0,14.09,0a10.31,10.31,0,0,1,9.56,6.68,9.12,9.12,0,0,1,.51,3.32,38.7,38.7,0,0,1-.86,6.78c-.58,2.89-1.15,5.79-1.8,8.66a22.4,22.4,0,0,1-1.67,4.69,9.84,9.84,0,0,1-8.51,5.88,75.21,75.21,0,0,1-7.8.16c-4.7,0-9.4,0-14.1,0-1.55,0-3.11-.09-4.67-.13a7.86,7.86,0,0,0-1.28.08,2.49,2.49,0,0,0-2.06,1.6,12.12,12.12,0,0,0-.64,2.07c-.93,4-1.84,8-2.77,12.08a3.09,3.09,0,0,1-.46,1.09,1.92,1.92,0,0,1-1.64.88c-3.11,0-6.22,0-9.34,0A1.87,1.87,0,0,1,195,261a80.4,80.4,0,0,1,1.85-9.47c1.29-5,2.67-10.06,3.94-15.11,1.54-6.11,2.93-12.26,4.54-18.35a11.06,11.06,0,0,1,11-8.65c4.67,0,9.34.12,14,.19Zm-3,23.6V233h6.76c1.05,0,2.09.09,3.14.07a2.53,2.53,0,0,0,2.43-1.67,5.72,5.72,0,0,0,.32-1c.33-1.38.65-2.77,1-4.15.19-.84.4-1.67.54-2.52a1.42,1.42,0,0,0-1.37-1.78,6.56,6.56,0,0,0-.89,0q-9.16,0-18.35,0a7.06,7.06,0,0,0-.8,0,2.34,2.34,0,0,0-2.06,1.57,8.89,8.89,0,0,0-.28,1q-.72,3.09-1.41,6.18a6.87,6.87,0,0,0-.21,1.27.85.85,0,0,0,.7,1,4.53,4.53,0,0,0,1.1.13Z"/><path class="cls-1" d="M312,263.33l-4.67-.14a2.68,2.68,0,0,1-.63-.11c-.73-.2-1-.52-1-1.26a9.37,9.37,0,0,1,.28-1.9q3.91-15.9,7.85-31.8c.64-2.58,1.23-5.17,1.87-7.75a18.48,18.48,0,0,1,2.81-6.37c2.69-3.76,6.38-5.15,10.9-4.47a1.78,1.78,0,0,1,1.19,2.15q-.71,3.13-1.46,6.27-4.77,19.78-9.55,39.58c-.32,1.33-.65,2.66-1,4a2,2,0,0,1-1.88,1.68c-1.12.09-2.25.08-3.38.1-.46,0-.91,0-1.37,0Z"/><path class="cls-1" d="M372.28,282.79l-.5-.3a1,1,0,0,0-.22.15c-1.88,2.51-3.89,4.93-5.52,7.63a4.82,4.82,0,0,1-.8,1,1.36,1.36,0,0,1-1.83.18,5.47,5.47,0,0,1-1.89-2.05,11.92,11.92,0,0,1-1.17-3.67c-.19-1-.35-2.06-.53-3.09-.07-.42-.24-.72-.84-.57-.08.22-.18.49-.25.76q-1.2,4.59-2.39,9.19c-.27,1-.65,1.4-1.73,1.42-1.55,0-3.1,0-4.73,0,.22-.9.42-1.73.63-2.56q2.33-9.28,4.65-18.57a4.74,4.74,0,0,1,4.38-3.65,8.07,8.07,0,0,1,2.07.19,1.62,1.62,0,0,1,1.31,1.45c.32,1.77.65,3.53,1,5.3s.66,3.75,1,5.63c0,.23.11.46.2.82.24-.3.44-.51.6-.74l7.58-10.42c.25-.35.49-.7.76-1a2.24,2.24,0,0,1,1.81-.9c1.85,0,3.69,0,5.64,0-.05.32-.07.6-.14.87-1.17,4.88-2.36,9.75-3.52,14.63-.54,2.27-1,4.54-1.56,6.82a7.45,7.45,0,0,1-.27.92,1.75,1.75,0,0,1-1.69,1.27c-1.52,0-3.05,0-4.69,0Z"/><path class="cls-1" d="M242.15,293.43c.11-.48.22-.92.33-1.35.21-.83.47-1.66.61-2.5.2-1.13-.29-1.7-1.43-1.72-2,0-4.08-.07-6.12-.07-1.54,0-2.09.41-2.62,1.87-.15.41-.26.82-.39,1.23a7,7,0,0,1-.35.9c-.75,1.4-3.68,2.38-5.15,1.74a1.33,1.33,0,0,1-.75-.79,2.78,2.78,0,0,1-.07-1.59c1.49-5.87,3-11.75,4.45-17.62a14.49,14.49,0,0,1,.63-1.82,4.14,4.14,0,0,1,3.83-2.74c1.79-.09,3.59-.09,5.39-.09,3.52,0,7,0,10.55,0a6.77,6.77,0,0,1,1.35.11,1.34,1.34,0,0,1,1.25,1.51,7,7,0,0,1-.23,1.58c-1.28,5.13-2.59,10.25-3.86,15.37-.34,1.35-.61,2.72-.91,4.08-.37,1.65-.72,1.95-2.41,2h-3.46C242.61,293.48,242.42,293.45,242.15,293.43Zm-6.74-13.25a5.41,5.41,0,0,0,.61.06H243c.4,0,.8-.06,1.2-.1a1.61,1.61,0,0,0,1.48-1.28,26.9,26.9,0,0,0,.6-2.66c.18-1.1-.23-1.53-1.37-1.55-.67,0-1.34.05-2,.05-1.47,0-2.95,0-4.42,0a2.42,2.42,0,0,0-2.67,2.57c0,.64-.16,1.28-.23,1.92C235.49,279.52,235.45,279.83,235.41,280.18Z"/><path class="cls-1" d="M291,293.47c.11-1.11.2-2.12.3-3.13,0-.4.11-.8.13-1.2,0-.92-.14-1.12-1.07-1.25a7.31,7.31,0,0,0-.8-.05l-5.08,0c-.29,0-.59.05-.88.05a2.18,2.18,0,0,0-2.21,1.75c-.16.52-.34,1-.5,1.54a3.07,3.07,0,0,1-2.42,2.22,13.26,13.26,0,0,1-4.22,0c.11-.5.21-.94.32-1.38,1.34-5.47,2.69-10.94,4-16.41a13.77,13.77,0,0,1,1.45-4.32A4.63,4.63,0,0,1,283.2,269a11.77,11.77,0,0,1,1.68-.13q7.65,0,15.3.06a9.8,9.8,0,0,1,1.21,0c.71.09,1,.43.92,1.15a3.54,3.54,0,0,1-.17.86c-1.48,4.72-2.46,9.56-3.54,14.37-.5,2.25-1.06,4.49-1.61,6.73a1.52,1.52,0,0,1-1.76,1.39C293.87,293.48,292.5,293.47,291,293.47Zm-2.27-13.23v-.07c1.18,0,2.36,0,3.53,0A1.88,1.88,0,0,0,294,279a16.45,16.45,0,0,0,.77-2c.44-1.5,0-2.13-1.57-2.19-1.84-.08-3.69-.09-5.54-.08a11.07,11.07,0,0,0-2,.26,1.7,1.7,0,0,0-1.24,1.06,7.72,7.72,0,0,0-.63,2.88,1.17,1.17,0,0,0,1.12,1.32,3.44,3.44,0,0,0,.64,0Z"/><path class="cls-1" d="M299.86,293.29c.31-1.27.58-2.45.87-3.61q2.24-9,4.46-18.05c.47-1.89,1.33-2.66,3.27-2.69,3.27-.05,6.55,0,9.82,0,1.61,0,3.22,0,4.83,0a4.19,4.19,0,0,1,2.62.89,5.16,5.16,0,0,1,2,5.54q-1.74,7-3.51,14a6.82,6.82,0,0,1-.31,1,4.71,4.71,0,0,1-4.55,3.12c-2.09,0-4.18,0-6.28,0-3.41,0-6.82,0-10.22-.05C301.91,293.44,301,293.35,299.86,293.29Zm7.83-5.62a1.78,1.78,0,0,0,.34.08c3,0,6-.05,9-.06a1.3,1.3,0,0,0,1.14-.63,4.38,4.38,0,0,0,.55-1.23c.67-2.43,1.31-4.87,2-7.31.2-.77.42-1.55.58-2.33a1.1,1.1,0,0,0-1-1.49,3.44,3.44,0,0,0-.72-.05c-2.49,0-5,.05-7.48.09-1.27,0-1.69.38-2,1.65q-.72,3.3-1.43,6.6C308.32,284.53,308,286.08,307.69,287.67Z"/><path class="cls-1" d="M336.2,278.37h9.37a21.71,21.71,0,0,1-.67,4.3,2,2,0,0,1-1.72,1.29,8.6,8.6,0,0,1-1.68.14c-1.48,0-2.95,0-4.43,0-.27,0-.54,0-.81,0a2.25,2.25,0,0,0-2.39,2.52c0,.87.36,1.21,1.23,1.21s1.93,0,2.9,0h8.54a10.49,10.49,0,0,1,1.12.05c.7.11,1,.47.93,1.17a9.21,9.21,0,0,1-1.22,3.55,2,2,0,0,1-1,.71,4.2,4.2,0,0,1-1.42.19c-4.19,0-8.38-.06-12.57,0a5.19,5.19,0,0,1-4.93-6.48c1.1-4.15,2.06-8.33,3.1-12.5a20.45,20.45,0,0,1,.71-2.13,4.83,4.83,0,0,1,4.69-3.42c2.31-.1,4.62-.1,6.92-.11,2.53,0,5,0,7.57,0a13.57,13.57,0,0,1,1.69.06c.75.08,1.08.45,1,1.19a11,11,0,0,1-1.21,3.65,1.7,1.7,0,0,1-1.51.78c-.61,0-1.23,0-1.85,0-1.47,0-2.95.1-4.43.09s-3.11-.08-4.67-.12c-2.15-.07-3.05.73-3.22,2.88C336.18,277.74,336.2,278,336.2,278.37Z"/><path class="cls-1" d="M258.44,287.55c1.37.09,2.76.22,4.15.24,2.54,0,5.09,0,7.64,0,.59,0,1.19,0,1.77,0a1.29,1.29,0,0,1,1.33,1.49,6.23,6.23,0,0,1-1,3.11,2.67,2.67,0,0,1-2.11,1.18,5.13,5.13,0,0,1-1,0c-3.59-.31-7.19-.12-10.79-.12a22.65,22.65,0,0,1-2.33,0c-2.38-.23-3.77-1.76-3.65-4,0-.64,0-1.29.12-1.93A91.45,91.45,0,0,1,255,275.5c.18-.68.3-1.37.46-2.05a5.57,5.57,0,0,1,5.74-4.54q6.92,0,13.85,0a14.14,14.14,0,0,1,1.84.06c1,.12,1.33.68,1.05,1.65-.09.3-.26.59-.35.89a7.79,7.79,0,0,0-.36,1.48c-.13,1.17-.54,1.62-1.74,1.64-1.64,0-3.27,0-4.91,0h-6.44c-.27,0-.54,0-.81,0a2.15,2.15,0,0,0-2.23,1.83C260.21,280.11,259.34,283.76,258.44,287.55Z"/><path class="cls-1" d="M393.64,276.38c.26-.29.49-.51.69-.75.81-1,1.6-1.95,2.42-2.91.43-.52.88-1,1.33-1.51a7.25,7.25,0,0,1,7.69-2.18c.44.11.87.25,1.38.4a3.66,3.66,0,0,1-.26.44,96.75,96.75,0,0,1-6.59,7.71,19.25,19.25,0,0,0-5.16,9.31c-.39,1.61-1,3.17-1.42,4.77a2,2,0,0,1-2.24,1.75c-1.1,0-2.2-.11-3.29-.16a.62.62,0,0,1-.61-.54,3.49,3.49,0,0,1-.05-1.67c.44-1.63.87-3.26,1.25-4.91a10.34,10.34,0,0,0,.09-4.63,8,8,0,0,0-.56-1.67c-1.49-3.06-3-6.11-4.51-9.17l-.55-1.13a8.13,8.13,0,0,1,3.91-.84,4.25,4.25,0,0,1,3.2,1.64A19.54,19.54,0,0,1,392,273c.46.82.79,1.71,1.18,2.56C393.34,275.78,393.47,276,393.64,276.38Z"/></svg>